<?xml version="1.0" encoding="UTF-8"?>
<svg xmlns="http://www.w3.org/2000/svg" xmlns:xlink="http://www.w3.org/1999/xlink" width="16px" height="16px" viewBox="0 0 16 16" version="1.1">
<g id="surface1">
<path style=" stroke:none;fill-rule:nonzero;fill:rgb(0%,0%,0%);fill-opacity:1;" d="M 6.402344 0.335938 C 4.28125 0.808594 2.542969 1.980469 1.347656 3.761719 C -0.746094 6.902344 -0.332031 11.113281 2.34375 13.796875 C 3.140625 14.605469 4.359375 15.382812 5.277344 15.683594 C 5.621094 15.792969 5.660156 15.792969 5.8125 15.691406 C 5.980469 15.578125 5.988281 15.550781 5.988281 14.75 L 5.988281 13.929688 L 5.375 13.964844 C 4.65625 14 4.105469 13.875 3.769531 13.589844 C 3.652344 13.492188 3.417969 13.15625 3.257812 12.851562 C 2.996094 12.335938 2.800781 12.101562 2.257812 11.621094 C 2.078125 11.460938 2.070312 11.453125 2.195312 11.363281 C 2.492188 11.136719 3.101562 11.355469 3.484375 11.816406 C 4.152344 12.628906 4.410156 12.847656 4.792969 12.929688 C 5.132812 12.996094 5.445312 12.96875 5.917969 12.828125 C 5.980469 12.808594 6.066406 12.664062 6.105469 12.496094 C 6.144531 12.335938 6.261719 12.09375 6.351562 11.960938 L 6.515625 11.71875 L 5.953125 11.605469 C 4.769531 11.363281 4.039062 10.9375 3.558594 10.210938 C 3.113281 9.546875 2.964844 8.96875 2.960938 7.890625 C 2.960938 6.875 3.070312 6.457031 3.507812 5.886719 C 3.703125 5.632812 3.722656 5.5625 3.671875 5.414062 C 3.566406 5.160156 3.59375 4.105469 3.703125 3.785156 C 3.792969 3.546875 3.84375 3.507812 4.03125 3.484375 C 4.34375 3.453125 4.929688 3.652344 5.523438 3.988281 L 6.027344 4.28125 L 6.476562 4.175781 C 7.109375 4.027344 9.007812 4.035156 9.578125 4.175781 L 10.011719 4.285156 L 10.414062 4.042969 C 10.949219 3.722656 11.628906 3.472656 11.972656 3.472656 C 12.242188 3.472656 12.242188 3.476562 12.355469 3.832031 C 12.472656 4.242188 12.492188 4.988281 12.386719 5.34375 C 12.335938 5.550781 12.347656 5.613281 12.503906 5.816406 C 13.261719 6.820312 13.34375 8.480469 12.703125 9.847656 C 12.269531 10.742188 11.359375 11.371094 10.132812 11.597656 L 9.550781 11.707031 L 9.765625 12.09375 L 9.988281 12.484375 L 10.011719 14.03125 L 10.035156 15.585938 L 10.210938 15.695312 C 10.371094 15.800781 10.40625 15.800781 10.742188 15.683594 C 11.296875 15.496094 12.25 14.980469 12.769531 14.582031 C 15.875 12.257812 16.875 8.09375 15.15625 4.628906 C 14.148438 2.589844 12.242188 1.023438 10.054688 0.441406 C 9.105469 0.1875 7.308594 0.128906 6.402344 0.335938 Z M 6.402344 0.335938 "/>
</g>
</svg>
