<?xml version="1.0" encoding="UTF-8"?>
<svg xmlns="http://www.w3.org/2000/svg" xmlns:xlink="http://www.w3.org/1999/xlink" width="16px" height="16px" viewBox="0 0 16 16" version="1.1">
<g id="surface1">
<path style=" stroke:none;fill-rule:nonzero;fill:rgb(88.627452%,26.274511%,16.078432%);fill-opacity:1;" d="M 15.734375 6.332031 L 15.710938 6.273438 L 13.53125 0.375 C 13.488281 0.257812 13.410156 0.160156 13.308594 0.09375 C 13.101562 -0.0390625 12.835938 -0.0234375 12.640625 0.132812 C 12.550781 0.210938 12.480469 0.316406 12.449219 0.4375 L 10.976562 5.105469 L 5.023438 5.105469 L 3.554688 0.4375 C 3.523438 0.316406 3.453125 0.207031 3.359375 0.132812 C 3.167969 -0.0234375 2.902344 -0.0390625 2.695312 0.09375 C 2.59375 0.160156 2.515625 0.257812 2.472656 0.375 L 0.289062 6.269531 L 0.265625 6.328125 C -0.375 8.074219 0.171875 10.054688 1.609375 11.179688 L 1.617188 11.183594 L 1.636719 11.199219 L 4.953125 13.777344 L 6.59375 15.066406 L 7.59375 15.851562 C 7.835938 16.039062 8.167969 16.039062 8.40625 15.851562 L 9.40625 15.066406 L 11.046875 13.777344 L 14.382812 11.183594 L 14.394531 11.175781 C 15.828125 10.050781 16.375 8.078125 15.734375 6.332031 Z M 15.734375 6.332031 "/>
<path style=" stroke:none;fill-rule:nonzero;fill:rgb(98.823529%,42.745098%,14.901961%);fill-opacity:1;" d="M 15.734375 6.332031 L 15.710938 6.273438 C 14.648438 6.5 13.648438 6.964844 12.78125 7.636719 L 8 11.390625 C 9.628906 12.671875 11.046875 13.78125 11.046875 13.78125 L 14.382812 11.1875 L 14.390625 11.179688 C 15.828125 10.054688 16.375 8.078125 15.734375 6.332031 Z M 15.734375 6.332031 "/>
<path style=" stroke:none;fill-rule:nonzero;fill:rgb(98.823529%,63.921571%,14.901961%);fill-opacity:1;" d="M 4.953125 13.78125 L 6.59375 15.070312 L 7.59375 15.855469 C 7.835938 16.042969 8.167969 16.042969 8.40625 15.855469 L 9.40625 15.070312 L 11.046875 13.78125 C 11.046875 13.78125 9.628906 12.667969 8 11.390625 C 6.371094 12.667969 4.953125 13.78125 4.953125 13.78125 Z M 4.953125 13.78125 "/>
<path style=" stroke:none;fill-rule:nonzero;fill:rgb(98.823529%,42.745098%,14.901961%);fill-opacity:1;" d="M 3.214844 7.636719 C 2.351562 6.964844 1.351562 6.496094 0.289062 6.269531 L 0.265625 6.328125 C -0.375 8.074219 0.171875 10.054688 1.609375 11.179688 L 1.617188 11.183594 L 1.636719 11.199219 L 4.953125 13.777344 C 4.953125 13.777344 6.371094 12.667969 8 11.386719 Z M 3.214844 7.636719 "/>
</g>
</svg>
