<?xml version="1.0" encoding="UTF-8"?>
<svg xmlns="http://www.w3.org/2000/svg" xmlns:xlink="http://www.w3.org/1999/xlink" width="16px" height="16px" viewBox="0 0 16 16" version="1.1">
<g id="surface1">
<path style=" stroke:none;fill-rule:evenodd;fill:rgb(0%,49.411765%,73.333335%);fill-opacity:1;" d="M 1.777344 16 L 14.222656 16 C 15.203125 16 16 15.203125 16 14.222656 L 16 1.777344 C 16 0.796875 15.203125 0 14.222656 0 L 1.777344 0 C 0.796875 0 0 0.796875 0 1.777344 L 0 14.222656 C 0 15.203125 0.796875 16 1.777344 16 Z M 1.777344 16 "/>
<path style=" stroke:none;fill-rule:evenodd;fill:rgb(100%,100%,100%);fill-opacity:1;" d="M 13.777344 13.777344 L 11.402344 13.777344 L 11.402344 9.734375 C 11.402344 8.625 10.980469 8.003906 10.105469 8.003906 C 9.148438 8.003906 8.652344 8.648438 8.652344 9.734375 L 8.652344 13.777344 L 6.363281 13.777344 L 6.363281 6.074219 L 8.652344 6.074219 L 8.652344 7.113281 C 8.652344 7.113281 9.339844 5.839844 10.972656 5.839844 C 12.609375 5.839844 13.777344 6.835938 13.777344 8.898438 Z M 3.632812 5.066406 C 2.855469 5.066406 2.222656 4.429688 2.222656 3.644531 C 2.222656 2.859375 2.855469 2.222656 3.632812 2.222656 C 4.414062 2.222656 5.042969 2.859375 5.042969 3.644531 C 5.042969 4.429688 4.414062 5.066406 3.632812 5.066406 Z M 2.453125 13.777344 L 4.835938 13.777344 L 4.835938 6.074219 L 2.453125 6.074219 Z M 2.453125 13.777344 "/>
</g>
</svg>
