<?xml version="1.0" encoding="UTF-8"?>
<svg xmlns="http://www.w3.org/2000/svg" xmlns:xlink="http://www.w3.org/1999/xlink" width="16px" height="16px" viewBox="0 0 16 16" version="1.1">
<defs>
<linearGradient id="linear0" gradientUnits="userSpaceOnUse" x1="30.5" y1="0" x2="30.5" y2="65" gradientTransform="matrix(0.246154,0,0,0.246154,0.492308,0)">
<stop offset="0" style="stop-color:rgb(38.823529%,39.215686%,100%);stop-opacity:1;"/>
<stop offset="1" style="stop-color:rgb(33.72549%,22.745098%,80%);stop-opacity:1;"/>
</linearGradient>
</defs>
<g id="surface1">
<path style=" stroke:none;fill-rule:nonzero;fill:url(#linear0);" d="M 15.445312 3.542969 C 15.214844 1.824219 13.71875 0.46875 11.941406 0.207031 C 11.640625 0.160156 10.507812 0 7.875 0 L 7.855469 0 C 5.226562 0 4.660156 0.160156 4.363281 0.207031 C 2.636719 0.460938 1.058594 1.679688 0.675781 3.417969 C 0.492188 4.273438 0.472656 5.222656 0.507812 6.09375 C 0.554688 7.34375 0.5625 8.59375 0.679688 9.835938 C 0.757812 10.664062 0.894531 11.484375 1.085938 12.289062 C 1.449219 13.78125 2.921875 15.019531 4.367188 15.527344 C 5.910156 16.054688 7.570312 16.144531 9.160156 15.78125 C 9.335938 15.738281 9.507812 15.691406 9.679688 15.636719 C 10.066406 15.515625 10.519531 15.378906 10.851562 15.136719 C 10.859375 15.132812 10.863281 15.128906 10.863281 15.125 C 10.867188 15.117188 10.867188 15.113281 10.867188 15.109375 L 10.867188 13.902344 C 10.867188 13.898438 10.867188 13.890625 10.863281 13.886719 C 10.863281 13.882812 10.859375 13.878906 10.855469 13.875 C 10.851562 13.871094 10.847656 13.867188 10.839844 13.867188 C 10.835938 13.867188 10.828125 13.867188 10.824219 13.867188 C 9.804688 14.113281 8.761719 14.234375 7.710938 14.230469 C 5.910156 14.230469 5.421875 13.375 5.285156 13.019531 C 5.171875 12.710938 5.101562 12.390625 5.074219 12.0625 C 5.074219 12.058594 5.074219 12.054688 5.078125 12.046875 C 5.078125 12.042969 5.082031 12.039062 5.085938 12.035156 C 5.089844 12.03125 5.097656 12.027344 5.101562 12.027344 C 5.105469 12.027344 5.113281 12.027344 5.117188 12.027344 C 6.121094 12.269531 7.148438 12.390625 8.179688 12.390625 C 8.425781 12.390625 8.675781 12.390625 8.921875 12.386719 C 9.960938 12.355469 11.050781 12.304688 12.074219 12.105469 C 12.097656 12.097656 12.125 12.09375 12.144531 12.085938 C 13.753906 11.777344 15.285156 10.808594 15.441406 8.351562 C 15.449219 8.253906 15.464844 7.339844 15.464844 7.238281 C 15.464844 6.898438 15.574219 4.820312 15.445312 3.542969 Z M 15.445312 3.542969 "/>
<path style=" stroke:none;fill-rule:nonzero;fill:rgb(100%,100%,100%);fill-opacity:1;" d="M 12.898438 5.472656 L 12.898438 9.746094 L 11.203125 9.746094 L 11.203125 5.597656 C 11.203125 4.726562 10.839844 4.28125 10.101562 4.28125 C 9.289062 4.28125 8.878906 4.808594 8.878906 5.847656 L 8.878906 8.117188 L 7.199219 8.117188 L 7.199219 5.847656 C 7.199219 4.808594 6.789062 4.28125 5.976562 4.28125 C 5.242188 4.28125 4.875 4.726562 4.875 5.597656 L 4.875 9.746094 L 3.183594 9.746094 L 3.183594 5.472656 C 3.183594 4.601562 3.40625 3.90625 3.851562 3.394531 C 4.3125 2.882812 4.914062 2.617188 5.664062 2.617188 C 6.527344 2.617188 7.183594 2.949219 7.621094 3.617188 L 8.039062 4.324219 L 8.460938 3.617188 C 8.898438 2.949219 9.554688 2.617188 10.417969 2.617188 C 11.164062 2.617188 11.769531 2.882812 12.230469 3.394531 C 12.675781 3.90625 12.898438 4.601562 12.898438 5.472656 Z M 12.898438 5.472656 "/>
</g>
</svg>
