<?xml version="1.0" encoding="UTF-8"?>
<svg xmlns="http://www.w3.org/2000/svg" xmlns:xlink="http://www.w3.org/1999/xlink" width="16px" height="16px" viewBox="0 0 16 16" version="1.1">
<g id="surface1">
<path style=" stroke:none;fill-rule:nonzero;fill:rgb(0%,0%,0%);fill-opacity:1;" d="M 13.410156 16 L 2.589844 16 C 1.160156 16 0 14.839844 0 13.410156 L 0 2.589844 C 0 1.160156 1.160156 0 2.589844 0 L 13.410156 0 C 14.839844 0 16 1.160156 16 2.589844 L 16 13.410156 C 16 14.839844 14.839844 16 13.410156 16 Z M 13.410156 16 "/>
<path style=" stroke:none;fill-rule:nonzero;fill:rgb(100%,100%,100%);fill-opacity:1;" d="M 6.742188 6.535156 C 6.546875 6.402344 5.886719 5.945312 5.886719 5.945312 C 6.441406 5.144531 7.175781 4.835938 8.191406 4.835938 C 8.910156 4.835938 9.519531 5.078125 9.953125 5.535156 C 10.390625 5.992188 10.636719 6.648438 10.695312 7.488281 C 10.933594 7.585938 11.15625 7.707031 11.359375 7.84375 C 12.175781 8.394531 12.625 9.214844 12.625 10.160156 C 12.625 12.164062 10.988281 13.902344 8.019531 13.902344 C 5.472656 13.902344 2.824219 12.417969 2.824219 7.996094 C 2.824219 3.597656 5.390625 2.097656 8.011719 2.097656 C 9.222656 2.097656 12.066406 2.277344 13.132812 5.8125 L 12.132812 6.074219 C 11.304688 3.554688 9.574219 3.152344 7.984375 3.152344 C 5.359375 3.152344 3.875 4.753906 3.875 8.164062 C 3.875 11.21875 5.535156 12.84375 8.019531 12.84375 C 10.066406 12.84375 11.589844 11.777344 11.589844 10.21875 C 11.589844 9.15625 10.699219 8.648438 10.652344 8.648438 C 10.480469 9.558594 10.015625 11.09375 7.96875 11.09375 C 6.78125 11.09375 5.753906 10.265625 5.753906 9.1875 C 5.753906 7.644531 7.214844 7.085938 8.367188 7.085938 C 8.796875 7.085938 9.320312 7.113281 9.589844 7.171875 C 9.589844 6.699219 9.195312 5.894531 8.191406 5.894531 C 7.273438 5.894531 7.039062 6.195312 6.742188 6.535156 Z M 8.507812 8.140625 C 7.003906 8.140625 6.8125 8.78125 6.8125 9.183594 C 6.8125 9.832031 7.578125 10.046875 7.988281 10.046875 C 8.738281 10.046875 9.511719 9.839844 9.632812 8.257812 C 9.25 8.171875 8.96875 8.140625 8.507812 8.140625 Z M 8.507812 8.140625 "/>
</g>
</svg>
